<svg width="30" height="23" viewBox="0 0 30 23" fill="none" xmlns="http://www.w3.org/2000/svg">
<path d="M6.85102 22.36C4.87768 22.36 3.27768 21.6667 2.05102 20.28C0.877682 18.84 0.291016 16.9734 0.291016 14.68C0.291016 11.6934 1.17102 8.92002 2.93102 6.36002C4.69102 3.74668 6.87768 1.80002 9.49102 0.52002L9.97102 1.48002C8.85102 2.33335 7.86435 3.42669 7.01102 4.76002C6.15768 6.09335 5.54435 7.74668 5.17102 9.72002L6.85102 10.12C8.71768 10.5467 10.1577 11.3467 11.171 12.52C12.2377 13.64 12.771 15 12.771 16.6C12.771 18.3067 12.1844 19.6934 11.011 20.76C9.89102 21.8267 8.50435 22.36 6.85102 22.36ZM23.731 22.36C21.7577 22.36 20.1577 21.6667 18.931 20.28C17.7577 18.84 17.171 16.9734 17.171 14.68C17.171 11.6934 18.051 8.92002 19.811 6.36002C21.571 3.74668 23.7577 1.80002 26.371 0.52002L26.851 1.48002C25.731 2.33335 24.7444 3.42669 23.891 4.76002C23.0377 6.09335 22.4244 7.74668 22.051 9.72002L23.731 10.12C25.5977 10.5467 27.0377 11.3467 28.051 12.52C29.1177 13.64 29.651 15 29.651 16.6C29.651 18.3067 29.0644 19.6934 27.891 20.76C26.771 21.8267 25.3844 22.36 23.731 22.36Z" fill="#292F36"/>
</svg>
